<?xml version="1.0" encoding="UTF-8"?>
<svg id="Capa_1" data-name="Capa 1" xmlns="http://www.w3.org/2000/svg" viewBox="0 0 86.25 86.26">
  <defs>
    <style>
      #Capa_1 {
        border-radius: 8px;
      }
      .cls-1 {
        fill: #fefdfd;
      }

      .cls-2 {
        fill: #fbd161;
      }

      .cls-3 {
        fill: #e46353;
      }
    </style>
  </defs>
  <rect class="cls-3" width="86.25" height="86.25"/>
  <g>
    <path class="cls-1" d="M33.91,47.05c-1.05-.01-2.09-.03-3.14-.04-1.52-.02-2.31-.8-2.31-2.33,0-5.98,0-11.97,0-17.95,0-.83,.21-1.53,1.02-1.92,1.12-.53,2.36,.23,2.45,1.51,.03,.5,.01,1,.01,1.5,0,4,0,8.01,0,12.01,0,.49,.1,.71,.64,.66,.54-.04,1.09-.04,1.64,0,.47,.03,.63-.13,.63-.61-.02-3.78-.01-7.55-.01-11.33,0-.73-.02-1.46,0-2.18,.03-.97,.67-1.63,1.6-1.71,1.17-.1,1.94,.41,2.13,1.43,.05,.27,.05,.54,.05,.81,0,4.28,.02,8.56,0,12.83,0,.59,.13,.83,.75,.76,.47-.05,.96-.05,1.43,0,.59,.06,.72-.2,.71-.74-.02-4.23-.02-8.46-.02-12.7,0-.25,0-.5,.01-.75,.06-.9,.71-1.61,1.52-1.65,.86-.05,1.61,.59,1.74,1.5,.03,.2,.02,.41,.02,.61,0,5.96,0,11.92,0,17.88,0,1.57-.77,2.34-2.35,2.36-1,.01-2,.03-3,.05-1.84-.06-3.68-.06-5.52,0Z"/>
    <path class="cls-1" d="M52.32,47.6c-.5-.02-1-.03-1.5-.05-.98-.04-1.42-.42-1.69-1.37-.56-1.99-.67-4.04-.78-6.09-.1-1.93-.37-3.87,0-5.79,.78-4.17,2.91-7.4,6.74-9.38,1.49-.77,2.79,.04,2.79,1.7,0,6.8,0,13.6,0,20.41,0,.18-.01,.36-.02,.54-1.85,0-3.7,.02-5.54,.03Z"/>
    <path class="cls-2" d="M33.91,47.05c1.84-.05,3.68-.06,5.52,0,0,5.62,.01,11.23,.01,16.85,0,1.09-.5,1.57-1.6,1.58-.77,0-1.55,.01-2.32,0-1.14-.02-1.63-.53-1.63-1.72,0-4.8,0-9.6,0-14.4,0-.77,0-1.55,.01-2.32Z"/>
    <path class="cls-2" d="M52.32,47.6c1.85,0,3.7-.02,5.54-.03,.01,3.14,.02,6.27,.03,9.41,0,2.32,0,4.64,0,6.95,0,1.23-.47,1.7-1.68,1.7-.77,0-1.55,0-2.32,0-1.07-.01-1.58-.52-1.58-1.6,0-5.48,0-10.95,.01-16.43Z"/>
  </g>
</svg>